<?xml version="1.0" standalone="no"?>
<!DOCTYPE svg PUBLIC "-//W3C//DTD SVG 20010904//EN"
 "http://www.w3.org/TR/2001/REC-SVG-20010904/DTD/svg10.dtd">
<svg version="1.0" xmlns="http://www.w3.org/2000/svg"
 width="300.000000pt" height="300.000000pt" viewBox="0 0 300.000000 300.000000"
 preserveAspectRatio="xMidYMid meet">
<metadata>
Created by potrace 1.10, written by Peter Selinger 2001-2011
</metadata>
<g transform="translate(0.000000,300.000000) scale(0.100000,-0.100000)"
fill="#000000" stroke="none">
<path d="M610 2805 c-346 -60 -576 -322 -596 -680 -7 -118 9 -96 40 59 27 128
65 226 120 309 196 296 662 371 1071 172 50 -24 118 -63 151 -88 106 -78 94
-77 195 -7 396 274 900 276 1164 5 104 -107 148 -199 191 -404 33 -155 47
-172 40 -51 -16 306 -187 549 -454 647 -81 30 -213 53 -302 53 -222 0 -493
-89 -664 -219 l-66 -50 -68 50 c-224 169 -553 250 -822 204z"/>
<path d="M1389 2111 c-22 -22 -29 -39 -29 -67 0 -35 12 -49 192 -230 106 -107
188 -194 182 -194 -5 0 -81 72 -169 161 -231 233 -257 248 -316 190 -32 -33
-37 -67 -15 -109 8 -15 91 -103 185 -197 94 -93 171 -174 171 -180 0 -5 -82
72 -182 172 -101 99 -193 186 -205 192 -36 18 -63 13 -94 -18 -62 -62 -42 -97
200 -335 83 -82 148 -152 146 -155 -3 -3 -88 76 -188 176 -184 183 -209 203
-247 203 -34 0 -80 -53 -80 -91 0 -30 24 -57 248 -280 215 -215 256 -250 315
-279 59 -29 80 -34 145 -34 43 -1 98 6 125 14 l48 14 174 -174 c96 -96 175
-180 175 -187 0 -35 -497 -390 -642 -459 l-34 -16 -92 56 c-622 377 -1076 834
-1262 1269 -39 92 -89 264 -91 311 0 11 -9 46 -19 76 l-20 55 5 -95 c16 -378
312 -841 790 -1240 186 -155 430 -327 623 -439 l73 -42 112 67 c141 85 253
160 387 260 114 85 238 186 239 194 1 3 -92 98 -206 212 l-208 208 -65 -26
c-84 -34 -154 -30 -249 17 -55 27 -101 67 -289 253 -123 122 -230 233 -237
247 -12 22 -12 29 1 48 31 43 51 29 266 -186 l208 -207 35 34 35 34 -210 211
c-115 116 -210 215 -210 221 0 21 32 54 53 54 15 0 86 -64 229 -207 l208 -207
35 34 35 34 -210 211 c-115 116 -210 215 -210 221 0 21 32 54 53 54 15 0 86
-64 229 -207 l208 -207 35 34 35 34 -210 211 c-115 116 -210 215 -210 221 0
21 32 54 53 54 16 0 88 -65 243 -222 286 -289 314 -330 314 -462 -1 -53 -6
-83 -24 -118 l-23 -47 214 -213 213 -212 46 44 c25 25 82 86 126 137 276 317
440 669 437 937 -1 87 -7 72 -48 -124 -33 -153 -58 -224 -126 -360 -87 -174
-244 -388 -384 -525 l-51 -50 -187 187 -186 186 17 48 c34 101 14 222 -53 323
-37 55 -456 478 -493 497 -39 20 -56 18 -89 -15z"/>
</g>
</svg>
