<?xml version="1.0" standalone="no"?>
<!DOCTYPE svg PUBLIC "-//W3C//DTD SVG 20010904//EN"
 "http://www.w3.org/TR/2001/REC-SVG-20010904/DTD/svg10.dtd">
<svg version="1.0" xmlns="http://www.w3.org/2000/svg"
 width="300.000000pt" height="300.000000pt" viewBox="0 0 300.000000 300.000000"
 preserveAspectRatio="xMidYMid meet">
<metadata>
Created by potrace 1.10, written by Peter Selinger 2001-2011
</metadata>
<g transform="translate(0.000000,300.000000) scale(0.100000,-0.100000)"
fill="#000000" stroke="none">
<path d="M10 2561 c-17 -33 -12 -40 27 -34 l36 6 -16 -24 c-15 -21 -17 -73
-17 -525 0 -492 0 -502 21 -528 l20 -26 -20 -29 c-18 -26 -21 -44 -21 -148 0
-89 4 -124 15 -139 23 -30 18 -37 -20 -30 -38 7 -40 5 -25 -25 9 -16 22 -19
82 -19 l71 0 56 -53 c31 -29 64 -58 73 -63 15 -8 15 -13 -4 -69 -52 -154 28
-332 182 -404 45 -21 70 -25 135 -25 134 0 232 58 296 176 32 58 34 70 34 153
0 65 -5 98 -17 121 l-16 30 48 36 48 36 4 -64 c3 -50 9 -69 28 -90 46 -50 71
-54 317 -54 204 0 232 2 271 20 68 31 99 125 73 218 l-10 32 95 0 94 0 0 -125
c0 -150 -2 -148 130 -143 l88 3 6 -54 c13 -113 88 -216 194 -268 48 -23 70
-28 137 -28 71 0 88 4 147 33 108 53 175 148 185 261 4 45 9 58 19 54 24 -9
107 17 142 44 44 34 72 80 72 122 0 27 -3 31 -13 22 -10 -8 -19 -4 -35 19 -27
36 -27 36 -2 67 15 20 20 41 20 88 0 47 -5 68 -20 88 -25 31 -25 33 0 64 18
23 20 41 20 170 0 142 0 144 21 138 18 -6 20 -4 14 17 -4 12 -108 175 -231
361 l-224 337 -332 -2 -333 -3 -3 -417 -2 -418 -30 0 -30 0 0 543 c0 409 -3
546 -12 555 -9 9 -221 12 -895 12 -862 0 -883 0 -893 -19z m1720 -576 l0 -515
-825 0 -825 0 0 515 0 515 825 0 825 0 0 -515z m979 -75 l211 -320 0 -150 0
-149 -77 -3 -78 -3 -3 -147 c-3 -173 -2 -174 100 -165 63 6 65 3 44 -46 -17
-41 -53 -66 -110 -73 l-44 -6 -20 45 c-29 64 -95 132 -161 164 -49 24 -68 28
-146 28 -84 0 -94 -2 -154 -35 -68 -37 -130 -104 -152 -165 l-13 -35 -78 0
-78 0 0 690 0 690 274 0 273 0 212 -320z m-921 -452 c19 -19 14 -28 -18 -28
-16 0 -30 4 -30 8 0 9 21 32 30 32 3 0 11 -5 18 -12z m122 -28 c0 -26 -15 -33
-30 -15 -10 12 -10 18 0 30 15 18 30 11 30 -15z m-40 -175 l0 -135 -895 0
-895 0 0 135 0 135 895 0 895 0 0 -135z m1050 -125 l0 -80 -40 0 -40 0 0 80 0
80 40 0 40 0 0 -80z m-1010 -56 c0 -27 -24 -33 -34 -8 -7 19 12 47 25 38 5 -3
9 -16 9 -30z m-1644 -2 c8 -5 8 -15 -1 -35 l-12 -29 -32 28 c-24 20 -29 29
-19 35 16 11 49 11 64 1z m515 -1 c3 0 1 -16 -5 -35 l-10 -34 -41 21 c-58 31
-183 31 -242 -1 l-43 -22 0 24 c0 14 -5 28 -11 32 -26 16 21 21 179 19 92 -1
170 -3 173 -4z m292 3 c13 -5 12 -11 -8 -40 -13 -19 -26 -40 -28 -47 -4 -9 -7
-9 -18 1 -7 6 -23 12 -36 12 -18 0 -23 6 -23 24 0 14 -5 28 -11 32 -29 18 82
34 124 18z m595 -2 c9 -7 8 -13 -8 -27 -19 -17 -22 -17 -36 -3 -28 28 9 52 44
30z m-1278 -62 c-19 -16 -37 -29 -40 -29 -3 0 -21 13 -40 29 l-35 29 75 0 75
0 -35 -29z m520 0 c-19 -16 -39 -29 -45 -29 -5 0 -26 13 -45 29 l-34 30 79 0
80 -1 -35 -29z m687 4 c22 -22 25 -32 20 -77 -8 -86 -11 -87 -271 -87 -269 0
-266 -1 -266 95 0 96 -3 95 268 95 l223 0 26 -26z m-883 -29 c91 -44 141 -126
141 -230 -2 -228 -264 -337 -425 -175 -139 138 -81 359 110 421 39 13 131 5
174 -16z m1801 8 c66 -22 127 -85 150 -152 85 -257 -225 -452 -415 -262 -47
48 -80 119 -80 176 0 47 33 128 67 166 75 82 173 108 278 72z m-2146 -64 c-8
-17 -29 -27 -29 -15 0 2 -3 11 -6 19 -4 10 2 15 20 15 22 0 24 -3 15 -19z
m2381 -124 c0 -13 -18 -30 -25 -23 -2 1 -7 16 -11 32 -6 26 -5 27 15 17 11 -7
21 -18 21 -26z m-610 6 c0 -27 -15 -34 -31 -15 -10 13 -10 17 2 25 22 13 29
11 29 -10z"/>
<path d="M2042 2148 c-17 -17 -17 -619 0 -636 9 -9 105 -12 369 -12 414 0 389
-6 389 95 l0 64 -127 188 c-69 103 -146 216 -170 251 l-44 62 -203 0 c-144 0
-205 -3 -214 -12z m524 -285 c95 -140 149 -230 152 -250 l4 -33 -306 0 -306 0
0 250 0 250 154 0 154 0 148 -217z"/>
<path d="M557 906 c-72 -26 -107 -76 -107 -153 0 -30 7 -60 20 -81 55 -90 194
-99 259 -16 70 89 30 217 -78 253 -42 14 -47 13 -94 -3z m118 -119 c33 -80
-59 -144 -122 -85 -40 37 -29 102 20 123 42 18 85 2 102 -38z"/>
<path d="M2377 906 c-95 -34 -134 -131 -91 -223 35 -73 140 -106 214 -68 37
19 76 71 85 112 15 72 -41 162 -116 183 -42 12 -45 12 -92 -4z m105 -93 c25
-22 30 -59 14 -92 -17 -31 -34 -41 -74 -41 -77 0 -100 115 -29 145 33 14 63
10 89 -12z"/>
</g>
</svg>
