<?xml version="1.0" standalone="no"?>
<!DOCTYPE svg PUBLIC "-//W3C//DTD SVG 20010904//EN"
 "http://www.w3.org/TR/2001/REC-SVG-20010904/DTD/svg10.dtd">
<svg version="1.0" xmlns="http://www.w3.org/2000/svg"
 width="300.000000pt" height="300.000000pt" viewBox="0 0 300.000000 300.000000"
 preserveAspectRatio="xMidYMid meet">
<metadata>
Created by potrace 1.10, written by Peter Selinger 2001-2011
</metadata>
<g transform="translate(0.000000,300.000000) scale(0.100000,-0.100000)"
fill="#000000" stroke="none">
<path d="M510 2990 c-57 -14 -80 -50 -80 -126 l0 -64 -49 0 c-34 0 -56 -6 -75
-21 -108 -85 -50 -249 88 -249 l36 0 0 -95 0 -95 -32 0 c-51 0 -114 -36 -133
-77 -43 -90 11 -184 114 -198 l51 -7 0 -94 0 -94 -40 0 c-80 0 -140 -57 -140
-133 0 -80 56 -137 134 -137 l46 0 0 -100 0 -100 -46 0 c-77 0 -134 -57 -134
-135 0 -77 59 -135 138 -135 l42 0 0 -94 0 -94 -51 -7 c-103 -14 -157 -108
-114 -198 19 -41 82 -77 133 -77 l32 0 0 -95 0 -95 -36 0 c-138 0 -196 -164
-88 -249 19 -15 41 -21 75 -21 l49 0 0 -64 c0 -78 23 -112 84 -126 l38 -8 -33
35 c-25 26 -28 32 -12 24 33 -17 2154 -16 2173 2 8 6 3 -2 -13 -19 -33 -37
-34 -44 -4 -37 42 9 66 26 82 58 13 29 15 191 15 1435 0 1244 -2 1406 -15
1435 -16 32 -40 49 -82 58 -23 5 -31 -7 -13 -18 6 -3 10 -10 10 -16 0 -5 -419
-10 -1074 -11 -954 -3 -1073 -1 -1062 12 14 16 29 41 24 39 -2 -1 -19 -5 -38
-9z m2155 -1490 l0 -1405 -1069 -3 c-849 -2 -1071 0 -1078 10 -9 15 -11 2768
-2 2792 6 15 107 16 1078 14 l1071 -3 0 -1405z m-2195 1260 l0 -40 -25 16
c-30 19 -30 22 -8 46 25 27 33 22 33 -22z m-40 -90 l0 -50 -34 0 c-24 0 -39 7
-50 21 -25 37 4 79 56 79 27 0 28 -2 28 -50z m40 -97 l0 -46 -25 23 -25 24 22
23 c12 13 23 23 25 23 2 0 3 -21 3 -47z m0 -280 l0 -46 -25 23 -25 24 22 23
c12 13 23 23 25 23 2 0 3 -21 3 -47z m-40 -93 l0 -50 -35 0 c-26 0 -39 6 -51
25 -15 23 -15 27 0 50 12 19 25 25 51 25 l35 0 0 -50z m40 -97 l0 -46 -25 23
-25 24 22 23 c12 13 23 23 25 23 2 0 3 -21 3 -47z m-4 -311 c-3 -3 -15 3 -26
13 l-20 18 22 25 23 24 3 -37 c2 -20 1 -40 -2 -43z m-38 -60 c3 -51 3 -52 -26
-52 -51 0 -82 42 -56 78 13 19 45 32 69 27 6 -1 11 -25 13 -53z m40 -114 l-3
-23 -24 24 -24 24 24 20 c24 19 24 19 27 -2 2 -11 2 -31 0 -43z m0 -280 l-3
-23 -24 24 -24 24 24 20 c24 19 24 19 27 -2 2 -11 2 -31 0 -43z m-40 -70 c-3
-52 -3 -53 -33 -50 -81 8 -74 102 7 102 29 0 29 -1 26 -52z m42 -100 l0 -41
-25 23 c-23 22 -24 25 -8 42 25 28 33 22 33 -24z m0 -280 l0 -41 -25 23 c-23
22 -24 25 -8 42 25 28 33 22 33 -24z m-40 -88 l0 -50 -35 0 c-26 0 -39 6 -51
25 -15 23 -15 27 0 50 12 19 25 25 51 25 l35 0 0 -50z m40 -97 l0 -46 -25 23
-25 24 22 23 c12 13 23 23 25 23 2 0 3 -21 3 -47z m0 -280 l0 -46 -25 23 -25
24 22 23 c12 13 23 23 25 23 2 0 3 -21 3 -47z m-40 -93 c0 -48 -1 -50 -28 -50
-52 0 -81 42 -56 79 11 14 26 21 50 21 l34 0 0 -50z m35 -128 c-3 -3 -15 3
-26 15 l-21 20 24 22 23 22 3 -36 c2 -20 1 -40 -3 -43z"/>
<path d="M1483 2536 c-26 -23 -28 -29 -26 -93 l2 -68 -72 -22 c-231 -72 -409
-277 -450 -522 -12 -70 -15 -76 -38 -77 -43 -1 -67 -14 -79 -44 -17 -41 -8
-134 15 -160 18 -20 29 -20 757 -20 860 0 778 -12 778 113 0 86 -17 112 -74
110 l-33 -1 -12 69 c-44 267 -226 468 -495 547 -29 8 -30 9 -27 71 2 57 0 66
-25 92 -26 27 -32 29 -110 29 -73 0 -86 -3 -111 -24z m161 -64 c3 -5 3 -25 -1
-45 -6 -37 -6 -37 -54 -37 l-49 0 0 45 0 45 49 0 c28 0 52 -4 55 -8z m-104
-122 c0 -8 -61 -22 -67 -16 -3 2 3 16 13 30 16 25 18 26 35 10 11 -10 19 -20
19 -24z m160 15 c17 -32 8 -40 -30 -29 -29 9 -30 10 -15 32 21 28 29 28 45 -3z
m34 -85 c43 -11 104 -34 137 -52 83 -44 186 -148 231 -234 36 -68 68 -170 68
-215 l0 -24 -438 3 c-421 3 -440 2 -462 -16 -22 -17 -23 -23 -12 -46 l12 -26
509 0 510 0 -3 -27 -3 -28 -692 -3 -691 -2 0 30 0 30 103 0 c110 0 127 6 127
47 0 28 -40 47 -81 38 -15 -3 -30 -2 -33 3 -11 18 25 149 60 222 49 100 160
211 258 259 129 62 265 76 400 41z m-739 -540 c23 -26 16 -32 -29 -28 -36 3
-36 3 -21 26 20 27 27 27 50 2z m1237 3 c27 -24 22 -33 -17 -33 -39 0 -40 2
-23 30 15 24 17 24 40 3z"/>
<path d="M820 1180 c-8 -14 -8 -26 0 -40 11 -20 19 -20 772 -18 712 3 762 4
772 21 8 12 8 22 0 35 -10 16 -60 17 -772 20 -753 2 -761 2 -772 -18z"/>
<path d="M881 1006 c-8 -9 -11 -69 -9 -192 l3 -179 25 0 25 0 5 125 5 125 33
-62 c42 -82 59 -82 101 -3 18 33 34 60 36 60 2 0 3 -52 2 -116 -2 -97 1 -118
14 -127 9 -6 24 -7 33 -4 14 6 16 29 16 185 0 145 -3 182 -15 192 -26 22 -54
0 -96 -77 l-42 -76 -30 59 c-46 93 -80 122 -106 90z m249 -91 c0 -26 -14 -33
-25 -15 -9 14 1 40 15 40 5 0 10 -11 10 -25z"/>
<path d="M1302 1008 c-18 -18 -17 -351 2 -367 9 -8 50 -11 117 -9 103 3 104 3
104 28 0 24 -2 25 -82 28 l-83 3 0 54 0 55 50 0 c47 0 50 2 50 25 0 23 -3 25
-50 25 l-50 0 0 55 0 55 86 0 85 0 -3 28 -3 27 -105 3 c-73 2 -109 -1 -118
-10z"/>
<path d="M1642 1008 c-8 -8 -12 -65 -12 -189 0 -155 2 -178 16 -183 9 -4 25
-4 35 -1 17 6 19 18 19 118 l1 112 60 -112 c60 -113 85 -137 114 -113 12 10
15 46 15 186 0 161 -1 174 -19 184 -11 5 -27 7 -35 4 -13 -5 -16 -26 -16 -123
l0 -116 -56 110 c-66 131 -90 155 -122 123z m58 -89 c9 -15 8 -24 0 -35 -17
-20 -30 -8 -30 27 0 34 14 38 30 8z m140 -179 c0 -16 -2 -30 -5 -30 -9 0 -26
41 -20 50 12 20 25 9 25 -20z"/>
<path d="M2023 1013 c-10 -3 -13 -44 -13 -155 0 -124 3 -155 17 -179 34 -57
151 -66 202 -15 26 26 26 29 29 185 3 155 3 159 -18 166 -43 14 -50 -7 -50
-159 0 -155 -4 -166 -55 -166 -51 0 -55 11 -55 167 0 130 -2 143 -19 153 -11
5 -21 10 -23 9 -2 0 -9 -3 -15 -6z"/>
<path d="M820 500 c-8 -14 -8 -26 0 -40 10 -20 21 -20 538 -20 290 0 533 4
540 9 8 5 12 21 10 37 l-3 29 -537 3 c-529 2 -537 2 -548 -18z"/>
<path d="M2042 503 c-6 -10 -6 -28 -1 -40 8 -22 12 -23 157 -23 163 0 180 6
168 55 l-6 25 -155 0 c-137 0 -155 -2 -163 -17z"/>
</g>
</svg>
