<?xml version="1.0" encoding="utf-8"?>
<!-- Svg Vector Icons : http://www.onlinewebfonts.com/icon -->
<!DOCTYPE svg PUBLIC "-//W3C//DTD SVG 1.1//EN" "http://www.w3.org/Graphics/SVG/1.1/DTD/svg11.dtd">
<svg version="1.1" xmlns="http://www.w3.org/2000/svg" xmlns:xlink="http://www.w3.org/1999/xlink" x="0px" y="0px" viewBox="0 0 256 256" enable-background="new 0 0 256 256" xml:space="preserve">
<metadata> Svg Vector Icons : http://www.onlinewebfonts.com/icon </metadata>
<g><g><path fill="#000000" d="M155.1,107.8c-4,0-7.3,3.3-7.3,7.4s3.3,7.4,7.3,7.4c4,0,7.3-3.3,7.3-7.4S159.2,107.8,155.1,107.8z"/><path fill="#000000" d="M101.2,107.8c-4,0-7.3,3.3-7.3,7.4s3.3,7.4,7.3,7.4c4,0,7.3-3.3,7.3-7.4C108.5,111.1,105.3,107.8,101.2,107.8z"/><path fill="#000000" d="M127.8,71.1c-13.3,0-24.2,7.6-24.9,23.2h49.8C152,78.7,141.1,71.1,127.8,71.1z"/><path fill="#000000" d="M128,10C62.8,10,10,62.8,10,128c0,65.2,52.8,118,118,118c65.2,0,118-52.8,118-118C246,62.8,193.2,10,128,10z M174.5,190.4H81.5c-7.1,0-12.1-6.5-11.2-14.2L81,103.2c0.6-5,5.6-8.9,11.1-8.9h6.1c0.7-18.6,13.7-28.7,29.5-28.7c15.9,0,28.8,10.1,29.5,28.7h6.6c5.5,0,10.5,3.9,11.1,8.9l10.7,72.9C186.6,183.9,181.7,190.4,174.5,190.4z"/></g></g>
</svg>