<?xml version="1.0" standalone="no"?>
<!DOCTYPE svg PUBLIC "-//W3C//DTD SVG 20010904//EN"
 "http://www.w3.org/TR/2001/REC-SVG-20010904/DTD/svg10.dtd">
<svg version="1.0" xmlns="http://www.w3.org/2000/svg"
 width="300.000000pt" height="300.000000pt" viewBox="0 0 300.000000 300.000000"
 preserveAspectRatio="xMidYMid meet">
<metadata>
Created by potrace 1.10, written by Peter Selinger 2001-2011
</metadata>
<g transform="translate(0.000000,300.000000) scale(0.100000,-0.100000)"
fill="#000000" stroke="none">
<path d="M1033 2990 c-13 -5 -26 -23 -32 -46 -6 -22 -26 -50 -51 -71 -53 -46
-70 -80 -70 -143 0 -63 15 -93 74 -148 25 -24 46 -51 46 -60 0 -10 -22 -40
-50 -67 -63 -62 -88 -121 -68 -161 31 -64 92 -57 118 14 9 25 31 55 53 73 49
41 67 77 67 139 0 62 -15 92 -74 150 -25 24 -46 51 -46 58 0 8 25 41 55 73 77
84 92 159 36 188 -23 13 -28 13 -58 1z m47 -69 c0 -19 -17 -47 -55 -91 -31
-36 -58 -74 -61 -86 -7 -28 15 -70 56 -109 80 -76 80 -154 0 -230 -18 -16 -41
-47 -51 -68 -22 -42 -42 -44 -47 -5 -2 19 10 41 49 84 56 64 73 97 64 125 -3
9 -30 45 -60 79 -51 56 -55 64 -55 110 0 46 4 55 53 108 28 32 60 73 69 91 20
37 38 33 38 -8z"/>
<path d="M1533 2990 c-13 -5 -26 -23 -32 -46 -6 -22 -26 -50 -51 -71 -53 -46
-70 -80 -70 -143 0 -63 15 -93 74 -148 25 -24 46 -50 46 -59 0 -9 -24 -42 -54
-73 -62 -64 -83 -118 -63 -158 30 -61 91 -54 117 14 8 23 32 56 53 74 50 44
67 78 67 140 0 63 -15 93 -74 148 -25 24 -46 50 -46 59 0 9 24 42 54 73 78 81
93 159 37 189 -23 13 -28 13 -58 1z m47 -61 c0 -28 -17 -57 -62 -107 -44 -49
-61 -86 -52 -115 4 -12 29 -44 56 -73 77 -82 78 -142 4 -222 -24 -26 -51 -62
-60 -80 -19 -38 -40 -38 -44 0 -2 19 10 41 49 84 84 97 84 115 -2 210 -50 56
-51 58 -47 110 4 47 10 60 54 107 27 29 57 68 66 86 19 34 38 34 38 0z"/>
<path d="M2033 2990 c-14 -6 -26 -23 -33 -48 -7 -26 -22 -49 -46 -67 -53 -40
-74 -81 -74 -143 0 -64 14 -93 74 -152 25 -24 46 -51 46 -59 0 -8 -24 -40 -54
-71 -62 -64 -83 -118 -63 -158 30 -61 91 -54 117 14 8 23 32 56 53 74 50 44
67 78 67 140 0 63 -15 93 -74 148 -25 24 -46 50 -46 59 0 8 25 42 55 74 77 84
92 159 36 188 -23 13 -28 13 -58 1z m47 -61 c0 -28 -16 -56 -63 -109 -72 -82
-71 -106 5 -186 77 -82 78 -142 4 -222 -24 -26 -51 -62 -60 -80 -19 -38 -40
-38 -44 0 -2 19 10 41 49 84 56 64 73 97 64 125 -3 9 -30 45 -60 79 -51 56
-55 64 -55 110 0 46 4 55 53 108 28 32 60 73 69 91 19 34 38 34 38 0z"/>
<path d="M162 2105 c-58 -25 -92 -55 -122 -108 -26 -45 -30 -62 -30 -126 0
-138 39 -186 241 -286 l129 -65 0 -148 c0 -100 5 -167 15 -207 50 -192 226
-359 422 -400 100 -21 1266 -21 1366 0 196 41 372 208 422 400 10 40 15 107
15 207 l0 148 129 65 c202 101 241 147 241 286 0 67 -4 81 -33 129 -21 37 -48
64 -81 85 l-49 30 -1316 2 c-1130 2 -1321 0 -1349 -12z m2700 -60 c31 -22 52
-49 77 -98 l35 -69 -19 -54 c-30 -87 -68 -122 -214 -198 -99 -51 -135 -74
-146 -96 -11 -22 -15 -64 -15 -168 0 -111 -4 -153 -20 -204 -55 -180 -226
-328 -410 -358 -87 -13 -1213 -13 -1300 0 -102 17 -201 69 -280 148 -117 117
-150 208 -150 416 0 183 1 182 -156 260 -138 68 -177 101 -210 174 -29 64 -30
77 -4 135 28 63 67 106 115 128 38 18 96 19 1347 16 l1306 -2 44 -30z"/>
<path d="M185 2026 c-42 -18 -93 -79 -101 -121 -17 -93 27 -155 155 -219 117
-59 126 -61 150 -37 20 20 21 33 21 186 0 205 0 205 -117 205 -43 -1 -92 -7
-108 -14z m195 -196 l0 -170 -110 55 c-83 41 -116 64 -130 88 -38 61 -18 140
43 177 25 16 50 20 115 20 l82 0 0 -170z"/>
<path d="M481 2016 l-22 -23 3 -394 3 -394 27 -64 c58 -134 166 -238 295 -283
l68 -23 645 0 645 0 75 28 c134 49 241 157 294 295 20 54 21 76 24 446 l3 389
-22 23 -22 24 -997 0 -997 0 -22 -24z m2019 -389 c0 -314 -3 -382 -16 -428
-24 -80 -50 -126 -106 -186 -57 -59 -107 -92 -188 -119 -52 -18 -94 -19 -690
-19 -596 0 -638 1 -690 19 -30 10 -74 29 -96 43 -54 30 -136 117 -164 174 -47
90 -50 122 -50 517 l0 372 1000 0 1000 0 0 -373z"/>
<path d="M2610 2020 c-18 -18 -20 -33 -20 -185 0 -153 1 -166 21 -186 25 -25
34 -22 153 40 118 61 151 100 151 181 0 50 -4 64 -31 97 -45 56 -85 73 -176
73 -65 0 -81 -3 -98 -20z m207 -40 c61 -37 81 -116 43 -177 -14 -24 -47 -47
-130 -88 l-110 -55 0 170 0 170 83 0 c64 0 89 -4 114 -20z"/>
<path d="M849 616 c-31 -15 -150 -174 -188 -251 -35 -70 -42 -160 -16 -205 8
-14 14 -29 15 -33 0 -4 -27 -7 -60 -6 -46 2 -65 -2 -80 -16 -36 -32 -20 -85
29 -100 21 -6 23 -5 16 11 -4 11 -10 29 -12 42 -5 20 -2 22 40 22 34 0 53 6
73 24 27 22 27 25 16 63 -30 99 -7 171 96 310 82 110 93 115 141 65 51 -53
128 -170 146 -222 18 -51 19 -99 3 -153 -11 -38 -11 -41 16 -63 23 -20 38 -24
96 -24 76 0 117 13 125 41 4 10 1 45 -6 78 -9 50 -9 67 5 109 26 78 165 272
195 272 14 0 97 -96 141 -163 57 -87 75 -152 60 -222 -6 -30 -9 -63 -6 -73 9
-29 50 -42 126 -42 57 0 73 4 95 23 25 21 26 25 16 62 -17 63 -13 125 13 180
23 51 129 199 159 223 24 21 50 1 116 -88 101 -135 127 -214 101 -306 -12 -42
-11 -47 8 -67 14 -13 40 -23 69 -27 50 -5 57 -17 38 -64 -7 -16 -5 -17 16 -11
49 15 65 68 29 100 -15 14 -34 18 -80 16 -33 -1 -60 2 -60 6 1 4 7 19 15 33 8
14 14 52 15 85 0 71 -29 134 -116 256 -122 169 -143 166 -284 -38 -28 -39 -59
-92 -70 -118 -24 -55 -26 -148 -5 -185 8 -14 14 -28 15 -32 0 -5 -45 -8 -99
-8 l-100 0 21 46 c39 89 10 183 -102 332 -80 107 -96 122 -130 122 -34 0 -50
-15 -130 -122 -112 -149 -141 -243 -102 -332 l21 -46 -100 0 c-54 0 -99 3 -99
8 1 4 7 18 15 32 21 37 19 130 -5 185 -37 86 -174 269 -209 278 -10 2 -30 0
-42 -7z"/>
<path d="M821 452 c-51 -55 -111 -164 -111 -202 1 -38 34 -104 65 -128 88 -70
210 -34 251 74 15 38 15 51 4 86 -21 70 -100 187 -144 210 -15 8 -26 2 -65
-40z m101 -50 c83 -124 92 -156 64 -211 -45 -86 -177 -86 -222 0 -18 37 -18
73 2 112 16 31 105 167 109 167 1 0 22 -30 47 -68z"/>
<path d="M2085 469 c-42 -37 -112 -151 -121 -197 -9 -43 19 -114 57 -146 88
-74 213 -40 255 70 15 38 15 51 4 86 -13 44 -67 137 -104 176 -39 44 -52 45
-91 11z m87 -67 c83 -124 92 -156 64 -211 -21 -40 -64 -64 -111 -64 -95 0
-152 92 -109 176 16 31 105 167 109 167 1 0 22 -30 47 -68z"/>
<path d="M1446 456 c-47 -50 -97 -140 -103 -185 -8 -56 2 -86 43 -131 65 -71
157 -74 221 -8 66 70 70 118 18 218 -44 83 -95 140 -125 140 -13 0 -36 -15
-54 -34z m103 -56 c63 -90 82 -139 71 -181 -34 -122 -206 -122 -240 0 -7 27
-5 43 9 77 23 51 98 164 110 164 4 0 27 -27 50 -60z"/>
</g>
</svg>
